<svg xmlns="http://www.w3.org/2000/svg" width="71" height="48" viewBox="0 0 71 48">
    <g fill="none">
        <path fill="#000" d="M35.186 47.366c-11.109-.088-22.217-.16-33.321-.417-.382 0-.762-.03-1.141-.051-.38-.021-.724-.063-.724-.53 0-.465.412-.484.752-.498.55-.025 1.101-.042 1.65-.018.417.016.575-.142.678-.553 1.213-4.779 3.347-8.975 7.435-11.993 1.24-.918 2.486-1.822 3.685-2.782 3.07-2.46 4.991-5.653 5.903-9.462.534-2.12 1.352-4.159 2.433-6.059.666-1.206 1.69-2.071 2.794-2.819 1.367-.939 2.42-2.267 3.026-3.812.314-.755.635-1.529 1.27-2.097.771-.7 1.614-.976 2.62-.536.288.126.619.154.903.284.756.322 1.297 1.007 1.436 1.818.177.892.433 1.766.699 2.64.373 1.416 1.336 2.604 2.644 3.262 2.22 1.128 3.424 3.029 4.139 5.3.554 1.76 1.175 3.493 1.862 5.202.284.713.394.764.908.177.743-.848 1.236-1.864 1.7-2.89.425-.932.85-1.812 1.901-2.257.5-.212.878-.716 1.316-1.08.437-.363.852-.312 1.282-.013.33.23.621.511.862.834.672.872 1.27 1.799 1.79 2.77.366.718.828 1.382 1.373 1.974 1.001 1.077 1.59 2.444 2.498 3.59.321.406.328.96.351 1.466.096 1.93.627 3.68 1.811 5.255 1.42 1.887 1.951 4.154 2.452 6.412.363 1.631 1.126 3.094 1.818 4.593.149.324.403.375.726.38 1.418.027 2.835.072 4.25.114.276.002.551.02.825.051.698.096 1.075.515 1.054 1.125-.02.61-.407.972-1.068 1.044-.253.025-.507.032-.761.024-3.872-.08-7.738-.259-11.607-.373-3.531-.105-7.065-.056-10.599-.063-3.88-.019-7.754-.012-11.625-.012z"/>
        <path fill="#010101" d="M12.049 21.052c-1.644-.015-2.966-1.357-2.959-3.003.003-1.58 1.28-2.86 2.857-2.866 1.943 0 3.224 1.144 3.21 2.866-.007.813-.34 1.59-.924 2.155-.585.564-1.372.87-2.184.848zM48.615 3.073c0 .801-.319 1.57-.887 2.133-.569.564-1.339.877-2.139.869-1.6-.013-2.89-1.316-2.887-2.918C42.702 1.617 44.181 0 45.57 0c.813-.001 1.592.323 2.164.9.572.578.89 1.36.881 2.173z"/>
        <path fill="#030303" d="M66.796 32.794c-1.308.02-2.383-1.026-2.402-2.335-.02-1.309 1.025-2.385 2.332-2.405 1.138 0 2.475 1.165 2.482 2.193.011 1.442-1.02 2.533-2.412 2.547z"/>
        <path fill="#060606" d="M44.118 13.221c.017.223-.06.443-.214.606-.153.163-.368.253-.592.25-.528-.006-.96-.424-.984-.952.001-.223.093-.436.254-.59.16-.154.377-.237.6-.23.507.005.92.409.936.916z"/>
        <path fill="#050505" d="M23.672 4.108c.513.013.918.438.908.95.015.225-.064.446-.218.61-.154.165-.37.258-.594.257-.512-.014-.916-.438-.906-.95-.017-.225.061-.447.215-.612.154-.164.37-.257.595-.255z"/>
        <path fill="#0B0B0B" d="M39.225 8.694c-.524.028-.801-.19-.808-.646-.025-.193.04-.387.176-.526.136-.14.329-.21.522-.19.204-.009.403.065.551.204.149.14.235.334.238.538.033.498-.31.64-.68.62z"/>
        <path fill="#0D0D0D" d="M58.497 21.036c-.033.438-.254.727-.698.734-.399.008-.729-.308-.737-.707-.008-.399.308-.73.706-.738.44-.004.678.278.729.711z"/>
        <path fill="#FDFDFD" d="M55.792 46.052c-.168.117-.376.162-.577.124-4.528-.056-9.056-.133-13.583-.164-.814.042-1.595-.33-2.075-.99-.19-.254-.386-.503-.59-.745-.551-.72-1.425-1.117-2.329-1.056-.908.037-1.818.025-2.726-.035-1.299-.07-2.204-.608-2.611-1.976-.506-1.692-1.826-2.53-3.6-2.53-.635.002-1.268.07-1.89.205-.98.19-1.99.151-2.951-.115-.678-.165-1.35-.365-2.035-.489-.726-.11-1.336-.602-1.6-1.288-.326-.829-.748-1.616-1.256-2.347-.413-.537-.888-1.024-1.416-1.45-.451-.343-.94-.635-1.457-.87.615-.72 1.248-1.485 1.91-2.226 2.158-2.404 3.675-5.315 4.41-8.463.368-1.502.88-2.965 1.527-4.369.683-1.498 1.567-2.807 2.95-3.728 1.7-1.135 2.793-2.724 3.575-4.583.203-.582.511-1.121.908-1.592.424-.447.904-.598 1.49-.358.175.076.357.13.545.163.638.093.952.466 1.052 1.09.176.936.409 1.861.698 2.768.483 1.74 1.67 3.2 3.276 4.024 1.813.972 2.812 2.522 3.403 4.393.498 1.575 1.001 3.145 1.6 4.685 1.215 3.123 2.96 5.826 5.703 7.844 1.184.882 2.031 2.143 2.402 3.574.484 1.805 1.358 3.48 2.56 4.91.76.91 1.446 1.912 1.577 3.196.097.9.487 1.742 1.11 2.398zM56.171 32.118c-1.203 0-2.095-.669-2.667-1.83-.722-1.44-1.697-2.723-2.56-4.074-.72-1.121-1.775-1.685-3.141-1.713-1.418-.03-1.416-.072-.764-1.258.12-.175.217-.364.287-.564.328-1.422 1.51-2.097 2.504-2.96.305-.26.564-.2.82.084.675.759 1.264 1.59 1.755 2.48.524.967 1.164 1.866 1.907 2.677.87.932 1.396 2.097 2.12 3.15.466.671.217 1.61.352 2.419.049.291.063.59.12.876.147.732.129.769-.733.713z"/>
        <path fill="#DCDCDC" d="M14.55 37.123c0 .587-.348 1-.839.997-.637-.039-1.141-.556-1.164-1.195 0-.592.422-1.086.931-1.081.564.005 1.071.608 1.071 1.28z"/>
        <path fill="#FAFAFA" d="M18.174 40.492c.013.236-.075.465-.243.631-.167.166-.398.252-.633.236-.238.003-.466-.098-.623-.277-.157-.18-.228-.419-.194-.655.024-.517.403-.932.843-.932.508.043.887.488.85.997z"/>
        <path fill="#F9F9F9" d="M14.68 41.105c-.05.466-.189.855-.73.865-.54.009-.76-.31-.79-.8-.026-.223.042-.446.186-.618s.353-.277.577-.29c.53.016.705.377.757.843z"/>
        <path fill="#F3F3F3" d="M25.732 43.391c-.051.424-.172.82-.682.825-.465 0-.663-.34-.659-.76.005-.42.191-.808.68-.832.489-.023.603.364.661.767z"/>
        <path fill="#FDFDFD" d="M13.753 18.058c-.008.907-.742 1.64-1.648 1.645-.956-.002-1.729-.78-1.727-1.736.046-1.043.917-1.858 1.96-1.836.619.01 1.424 1.098 1.415 1.927zM45.524 1.377c.48 0 .94.19 1.277.531.338.34.526.802.522 1.282-.019.999-.839 1.795-1.836 1.785-.513 0-1.003-.21-1.358-.578-.356-.37-.546-.867-.528-1.38.002-1.134.594-1.635 1.923-1.64zM65.218 30.291c-.009-.55.26-1.066.714-1.375.455-.308 1.034-.367 1.541-.156.559.233 1.048 1.485.862 2.212-.214.763-.968 1.242-1.749 1.111-.84-.17-1.424-.936-1.368-1.792z"/>
        <path fill="#030303" d="M50.836 42.408c-.03.66-.466 1.165-.968 1.123-.503-.042-.964-.65-.952-1.254.011-.603.465-1.093 1.024-1.053.558.04.926.545.896 1.184z"/>
        <path fill="#040404" d="M34.713 40.57c0-.59.328-.993.827-.998.542 0 .998.522 1.015 1.165.016.643-.361 1.142-.84 1.165-.539.005-.995-.601-1.002-1.333z"/>
        <path fill="#0D0D0D" d="M19.845 31.212c-.017-.254.067-.505.235-.697.168-.191.405-.308.659-.324.54 0 .961.492.961 1.114 0 .622-.379 1.144-.842 1.165-.464.02-1.008-.634-1.013-1.258z"/>
        <path fill="#030303" d="M42.535 29.916c-.033.634-.438 1.1-.931 1.067-.494-.032-.918-.68-.866-1.349.042-.552.442-.95.93-.916.51.04.9.576.867 1.198z"/>
        <path fill="#040404" d="M36.629 17.194c0 .522-.333.895-.782.88-.55-.03-.98-.485-.98-1.036.035-.49.258-.85.803-.879.266.005.519.118.7.313.18.195.274.456.259.722zM25.053 34.325c-.014.526-.466.873-1.132.827-.514-.035-.656-.4-.65-.841-.026-.338.14-.662.428-.837.29-.176.653-.173.94.007.286.18.446.507.414.844z"/>
        <path fill="#050505" d="M21.789 35.725c-.049.373-.14.8-.699.839-.395.028-1.01-.632-1.026-1.058-.02-.224.055-.446.206-.613.151-.167.365-.263.59-.265.505.011.924.48.929 1.097zM35.479 21.982c.021-.405.175-.808.717-.88.428-.059.822.398.817.931 0 .485-.17.886-.717.953-.447.054-.803-.365-.817-1.004z"/>
        <path fill="#070707" d="M40.142 42.49c.04-.346.137-.725.638-.72.5.004.77.319.782.81 0 .429-.184.741-.647.79-.41.042-.764-.335-.773-.88z"/>
        <path fill="#121212" d="M24.166 28.723c.067-.44.218-.853.747-.846.465 0 .63.38.61.797-.024.466-.233.853-.743.86-.51.007-.57-.408-.614-.81z"/>
        <path fill="#0A0A0A" d="M38.915 18.55c0 .354-.158.594-.52.59-.15.004-.297-.055-.403-.163-.106-.107-.162-.255-.155-.406-.02-.14.023-.283.12-.386.096-.104.235-.158.376-.148.148-.023.299.02.412.12.112.099.175.243.17.393z"/>
        <path fill="#080808" d="M53.65 26.062c-.037.373-.211.739-.712.725-.5-.014-.736-.385-.743-.86 0-.438.138-.81.662-.834.433-.021.793.4.793.97z"/>
        <path fill="#0D0D0D" d="M51.055 23.003c-.051.396-.175.785-.647.792-.415 0-.559-.34-.559-.7 0-.358.16-.73.598-.756.438-.026.561.289.608.664z"/>
    </g>
</svg>
