<svg xmlns="http://www.w3.org/2000/svg" width="55" height="48" viewBox="0 0 55 48">
    <g fill="none">
        <path fill="#000" d="M44.953 10.661c.647-.303 1.247-.575 1.839-.865 1.89-.929 3.921-1.348 6.006-1.543.63-.06 1.152.21 1.669.505.186.11.303.31.308.526.047.743.191 1.474.143 2.232-.033.53-.294.798-.814.842-2.794.263-5.39 1.185-7.862 2.465-.63.326-1.19.798-1.805 1.217.11.095.149.152.197.166 1.545.46 2.54 1.632 3.569 2.767.453.493.815 1.063 1.068 1.684.46 1.156.995 2.278 1.541 3.394.504 1.031.61 2.166.84 3.265.111.516-.254.926-.819.962-1.348.086-2.666 0-3.875-.722-.63-.369-1.283-.67-1.976-1.028.181.977.336 1.92.536 2.855.21 1.004.292 1.996.025 3.009-.087.47-.147.944-.178 1.42-.068.48-.145.973-.683 1.17-.497.18-.84-.119-1.148-.445-.078-.062-.16-.117-.248-.164-.145.722-.382 1.422-.705 2.084-1.68 3.478-4.001 6.43-7.297 8.467-1.692 1.053-3.672 1.474-5.599 1.945-1.631.387-3.29.651-4.96.79-1.32.126-2.662.255-3.989.122-.854-.073-1.714-.079-2.57-.019-2.365.142-4.739-.076-7.04-.646-.992-.22-1.917-.673-2.698-1.324-.291-.255-.657-.384-.98-.584-2.177-1.336-3.665-3.143-3.863-5.806-.052-.697.137-1.368.284-2.04.775-3.432 1.828-6.796 3.149-10.057 1.007-2.526 2.177-5.01 3.193-7.547.125-.279.237-.563.333-.853.84-2.926 2.753-5.116 4.887-7.158.532-.549 1.12-1.04 1.755-1.463 1.953-1.193 4-1.511 6.206-.859.77.203 1.526.454 2.265.752.124-.18.017-.297-.034-.4-.653-1.348-.804-2.78-.737-4.253.049-1.052.56-1.204 1.516-.897 1.453.466 2.597 1.525 4.07 1.912 1.398.374 2.62 1.229 3.454 2.415.21.288.457.551.745.894.44-1.742 1.335-3.336 2.59-4.619 1.126-1.185 2.255-2.389 3.557-3.402.578-.405 1.123-.857 1.629-1.351.2-.253.544-.339.84-.21.277.105.462.37.465.669.078 1.345.475 2.636.767 3.932.4 1.781.463 3.558.434 5.358v.436zM6.1 13.053c0 1.605-1.28 2.916-2.882 2.947-1.567.002-2.839-1.269-2.842-2.84 0-1.547 1.226-2.905 2.729-2.775 1.832.16 2.924.773 2.995 2.668z"/>
        <path fill="#010101" d="M52.147 36.21c.013.657-.24 1.291-.702 1.757-.462.465-1.093.723-1.748.713-.635.006-1.246-.243-1.697-.692-.451-.449-.704-1.06-.702-1.697-.013-1.386 1.222-2.586 2.668-2.596 1.104-.01 2.177 1.23 2.181 2.516z"/>
        <path fill="#020202" d="M0 28.75c0-1.034.968-1.895 2.124-1.895.823 0 1.61.913 1.592 1.852-.048 1.038-.892 1.86-1.927 1.878-.482 0-.944-.194-1.28-.54-.337-.345-.52-.813-.509-1.296z"/>
        <path fill="#FEFEFE" d="M12.056 35.398c.905-.33 1.108-1.175 1.47-1.895.157-.263.072-.605-.19-.764-.285-.183-.552-.086-.772.139-.35.351-.634.763-.84 1.215-.197.44-.145.842.328 1.32-1.354-.485-2.572-.72-3.846-.586-.633.046-1.25.23-1.803.541-.122.072-.256.243-.4.118-.142-.124-.02-.29.013-.433.408-1.775 1.092-3.461 1.67-5.184 1.087-3.248 2.661-6.29 3.89-9.488.108-.286.251-.56.34-.842.822-2.733 2.628-4.752 4.668-6.619.763-.723 1.646-1.305 2.61-1.722.534-.26 1.123-.387 1.716-.373 2.753.195 5.4 1.137 7.66 2.724.251.177.447.422.565.706.183.42.54.673.918.916 1.496.951 2.995 1.894 4.21 3.227.37.388.706.804 1.008 1.246.862 1.285 1.858 2.473 2.973 3.543.277.272.596.6.63.933.044.446-.531.333-.81.514-.462.3-.994.482-1.426.842-.949.785-1.234 1.863-1.302 3.015-.079 1.533.142 3.067.65 4.515.453 1.3.365 2.73-.246 3.965-.42.894-1.325 1.336-2.2 1.627-.517.17-1.096-.236-1.642-.392-.77-.21-1.526-.488-2.284-.751-1.423-.497-2.695-.346-3.905.652-1.16.958-2.428 1.79-3.64 2.685-.367.289-.85.386-1.3.26-2.155-.503-4.128-1.303-5.6-3.08-.856-1.037-1.996-1.761-3.113-2.574z"/>
        <path fill="#FBFBFB" d="M43.798 13.895c.177-.85.713-1.58 1.47-2.002 1.805-1.053 3.659-1.96 5.764-2.266-1.146.407-1.981 1.215-2.779 2.078-.247.24-.543.424-.867.54-1.203.504-2.414.968-3.588 1.65z"/>
        <path fill="#FCFCFC" d="M29.69 40.901c.235.038.579-.156.686.192.107.347-.191.515-.435.663-.693.404-1.46.666-2.254.77-.445.066-1.062-.042-1.132-.391-.069-.35.42-.727.88-.842.738-.197 1.493-.328 2.255-.392z"/>
        <path fill="#FAFAFA" d="M15.234 42.147c-.684 1.1-2.479 1.474-3.569.777-.196-.092-.305-.307-.262-.52.042-.218.237-.372.458-.362.982.021 1.967-.187 2.939.032.142.031.287.048.434.073z"/>
        <path fill="#FCFCFC" d="M37.167 30.56c.023-.14.06-.278.113-.41.377-.735.961-1.342 1.68-1.746.245-.143.518-.187.724.065.206.253.09.474-.084.672-.44.55-.848 1.126-1.224 1.722-.161.301-.518.44-.84.326-.268-.094-.333-.338-.369-.629z"/>
        <path fill="#F9F9F9" d="M12.402 38.234c-.818.558-1.56 1.137-2.546 1.187-.172 0-.342.03-.512.03-.267 0-.506-.083-.567-.377-.05-.26.111-.514.367-.577.63-.28 1.315-.409 2.003-.38.399.035.793.075 1.255.117z"/>
        <path fill="#FCFCFC" d="M3.359 11.457c.615 0 1.27.82 1.28 1.61.006.376-.14.737-.404 1.003-.264.266-.624.414-.998.41-.815-.017-1.467-.684-1.47-1.501.027-.858.736-1.536 1.592-1.522zM50.986 36.147c.008.359-.13.705-.382.959-.253.254-.597.394-.955.387-.742 0-1.352-.587-1.381-1.33-.021-.66.58-1.432 1.098-1.416.875.026 1.608.66 1.62 1.4zM2.861 28.842c.003.262-.103.514-.293.694-.19.18-.447.272-.708.253-.579-.015-1.042-.486-1.05-1.067 0-.514.437-1.111.819-1.107.59.012 1.236.652 1.232 1.227z"/>
        <path fill="#010101" d="M21.889 31.981c-.932 1.324-2.016 2.39-3.491 2.992-.324.168-.685.252-1.05.244-.317.003-.594-.212-.672-.52-.077-.29.066-.594.338-.718.785-.465 1.568-.933 2.366-1.377.798-.444 1.688-.265 2.509-.62zM15.778 19.79c.025-.15.062-.297.111-.44.375-.856.887-1.644 1.516-2.333.245-.276.562-.421.915-.21.353.21.393.601.235.955-.402.862-.861 1.697-1.375 2.497-.02.032-.045.062-.073.088-.242.24-.563.56-.85.421-.34-.202-.528-.586-.48-.979z"/>
        <path fill="#020202" d="M30.376 27.318c-.397 1.375-1.425 2.002-2.714 2.316-.207.045-.419.065-.63.057-.344 0-.663-.106-.743-.491-.08-.385.21-.537.487-.678.478-.236.97-.45 1.425-.724.65-.402 1.417-.571 2.175-.48zM25.44 19.368c-.337.723-.63 1.6-1.389 2.175-.228.19-.552.213-.804.055-.213-.176-.304-.46-.235-.726.222-.915.806-1.7 1.618-2.173.387-.248.817.088.81.67z"/>
        <path fill="#050505" d="M19.827 27.945c-.235-.01-.45-.134-.579-.33-.129-.198-.155-.445-.071-.666.203-.645.629-1.197 1.2-1.557.223-.167.529-.167.752 0 .22.144.299.429.187.667-.223.549-.504 1.07-.84 1.558-.15.208-.392.33-.649.328z"/>
        <path fill="#030303" d="M31.472 32.053c-.294-.015-.462-.08-.559-.278-.096-.175-.07-.391.065-.537.45-.544.978-1.02 1.564-1.413.296-.179.63-.21.882.093s.136.598-.076.842c-.49.601-1.14 1.05-1.876 1.293z"/>
        <path fill="#050505" d="M25.78 35.661c-.74.524-1.307 1.263-2.172 1.57-.264.107-.536.196-.812.266-.296.06-.592.012-.708-.326-.115-.34.07-.569.347-.7.757-.355 1.505-.749 2.378-.751.321 0 .644-.038.968-.059z"/>
        <path fill="#030303" d="M11.896 27.768c.106-.858.521-1.648 1.168-2.22.178-.194.474-.217.68-.053.229.187.111.406-.013.614-.28.478-.507.984-.678 1.51-.045.145-.104.286-.174.421-.145.263-.349.65-.615.568-.267-.082-.39-.486-.368-.84z"/>
        <path fill="#040404" d="M32.01 21.116c-.173 1.052-.9 1.657-1.737 2.156-.21.128-.466.227-.684.014-.219-.212-.124-.471.012-.682.565-.86 1.126-1.735 2.408-1.488z"/>
        <path fill="#060606" d="M17.472 25.263c-.116-.78.302-1.638.924-1.951.128-.082.291-.082.42 0 .114.08.15.234.083.357-.291.67-.547 1.384-1.427 1.594z"/>
    </g>
</svg>
